<?xml version="1.0" standalone="no"?>
<!DOCTYPE svg PUBLIC "-//W3C//DTD SVG 20010904//EN"
 "http://www.w3.org/TR/2001/REC-SVG-20010904/DTD/svg10.dtd">
<svg version="1.0" xmlns="http://www.w3.org/2000/svg"
 width="256.000000pt" height="256.000000pt" viewBox="0 0 256.000000 256.000000"
 preserveAspectRatio="xMidYMid meet">
<metadata>
Created by potrace 1.14, written by Peter Selinger 2001-2017
</metadata>
<g transform="translate(0.000000,256.000000) scale(0.100000,-0.100000)"
fill="#000000" stroke="none">
<path d="M886 2387 c-52 -13 -127 -88 -144 -143 -20 -68 -15 -102 48 -289 33
-99 60 -181 60 -183 0 -1 -8 1 -17 6 -85 41 -232 -23 -265 -114 -10 -28 -17
-34 -33 -30 -97 27 -169 12 -230 -48 -60 -61 -71 -113 -51 -256 14 -105 19
-138 23 -155 2 -11 15 -85 28 -165 14 -80 30 -162 36 -184 6 -21 12 -46 14
-55 11 -48 52 -155 87 -225 54 -108 172 -225 278 -278 112 -55 199 -75 334
-76 116 -1 226 20 332 64 40 16 143 76 179 104 32 24 155 151 155 160 0 5 6
15 14 23 26 25 83 151 101 222 17 67 24 209 12 265 -48 225 -51 243 -65 314
-13 65 -5 246 12 305 3 9 8 31 11 48 3 18 12 63 21 100 9 38 18 82 21 98 3 17
12 68 22 115 9 47 16 92 16 100 -6 107 -86 192 -192 204 -72 8 -158 -34 -201
-98 -23 -33 -63 -201 -78 -321 -4 -27 -8 -53 -10 -56 -2 -3 -6 -33 -9 -65 -4
-32 -8 -67 -11 -76 -3 -10 -8 -30 -10 -45 -10 -53 -37 -56 -47 -6 -3 16 -19
78 -36 138 -17 61 -33 119 -35 130 -3 11 -13 45 -24 75 -11 30 -20 60 -20 65
-1 6 -20 62 -43 127 -56 158 -99 203 -204 212 -22 1 -58 -1 -79 -7z"/>
</g>
</svg>
