<svg width="486" height="440" viewBox="0 0 486 440" fill="none" xmlns="http://www.w3.org/2000/svg">
    <path d="M444.126 180.951a10.446 10.446 0 0 1-3.198-2.979 17.639 17.639 0 0 1-2.488-7.184s-.818-4.522-1.184-8.462a60.068 60.068 0 0 1-.239-6.905 11.236 11.236 0 0 1 2.394-4.992c1.577-1.834 3.024-2.176 4.751-3.558a13.988 13.988 0 0 0 4.483-6.991 58.89 58.89 0 0 0-5.961-31.234 58.894 58.894 0 0 0-21.322-23.588l-12.122.586a8.815 8.815 0 0 1-4.86-1.49 8.863 8.863 0 0 1-3.239-3.931l-8.1-13.006a11.362 11.362 0 0 1 .64-5.816 11.08 11.08 0 0 1 2.651-3.903 24.516 24.516 0 0 1 13.175-6.002 24.9 24.9 0 0 1 16.595 4.046 99.763 99.763 0 0 1 40.484 47.594 99.656 99.656 0 0 1 4.24 62.318 24.515 24.515 0 0 1-11.502 13.224 24.258 24.258 0 0 1-15.198 2.273z" fill="#A79CD3"/>
    <path d="m38.821 410.481 22.387-73.753 18.942 73.753H38.821z" fill="#7362B9"/>
    <path d="M61.207 336.728h119.644l-38.733 41.136-80.911-41.136z" fill="#7362B9"/>
    <path d="M61.207 336.728 86.401 440l131.262-5.447-36.812-97.825-38.733 41.136-80.911-41.136z" fill="#A79CD3"/>
    <path d="M80.391 11.722C73.151 5.505 64.29 1.564 54.888.378A48.139 48.139 0 0 0 27.433 5.04C18.92 9.27 11.797 15.924 6.933 24.196A50.4 50.4 0 0 0 .036 51.632c.363 9.632 3.47 18.949 8.944 26.817 5.473 7.868 13.076 13.948 21.883 17.5a48.094 48.094 0 0 0 27.726 2.507c9.285-1.916 17.822-6.537 24.573-13.3l59.949 51.466a4.456 4.456 0 0 0 3.28 1.058 4.479 4.479 0 0 0 3.057-1.607 4.636 4.636 0 0 0 1.05-3.335 4.61 4.61 0 0 0-1.571-3.114l-.007-.006-59.949-51.465c6.964-10.17 9.945-22.618 8.358-34.907-1.587-12.288-7.627-23.53-16.938-31.524zm-3.864 61.475c-4.67 5.631-10.877 9.727-17.835 11.77a36.017 36.017 0 0 1-21.257-.296c-6.9-2.235-12.995-6.502-17.512-12.26a37.618 37.618 0 0 1-7.866-20.094 37.793 37.793 0 0 1 4.431-21.153c3.501-6.45 8.803-11.7 15.236-15.083a36.076 36.076 0 0 1 20.904-3.93 36.304 36.304 0 0 1 19.528 8.55c7.421 6.37 12.052 15.481 12.871 25.326.82 9.845-2.237 19.618-8.5 27.17z" fill="#F7DAAD"/>
    <path opacity=".3" d="M24.929 77.644c-7.024-6.03-11.563-14.529-12.714-23.807-1.15-9.277 1.17-18.656 6.5-26.274-.7.718-1.376 1.469-2.03 2.254A37.445 37.445 0 0 0 9.78 42.54c-1.459 4.662-2 9.57-1.595 14.445a37.744 37.744 0 0 0 3.96 13.967 37.153 37.153 0 0 0 8.912 11.36 36.44 36.44 0 0 0 12.507 7.027 36.027 36.027 0 0 0 14.198 1.622 36.144 36.144 0 0 0 13.727-4.029 36.732 36.732 0 0 0 11.167-9.067 36.891 36.891 0 0 0 1.842-2.415c-6.484 6.628-15.18 10.533-24.363 10.94-9.183.405-18.18-2.716-25.205-8.747z" fill="#F2C47D"/>
    <g clip-path="url(#xqv0uym4ya)">
        <path d="M87.638 138.991a183.252 183.252 0 0 1 32.383-46.294 85.144 85.144 0 0 1 2.545-22.219c2.01-7.972 4.527-13.03 8.799-21.63 5.539-11.15 7.668-12.328 9.335-12.682 2.077-.438 4.943.067 13.117 7.428a121.024 121.024 0 0 1 16.608 18.414l39.812.536c4.63-5.202 9.93-11.068 15.841-17.44 6.454-6.968 8.389-8.878 11.233-8.938 7.489-.144 13.318 12.743 16.481 19.727a91.652 91.652 0 0 1 7.981 35.188 164.21 164.21 0 0 1 32.91 47.91h-9.044a187.863 187.863 0 0 1 13.265 54.357l-9.022-3.337a99.89 99.89 0 0 1-13.34 43.074c-7.662 13.123-18.212 24.271-30.827 32.573l-5.56-8.305c-11.891 15.024-28.403 25.574-46.899 29.965-20.388-3.115-38.912-13.792-51.982-29.965l-4.385 8.901c-12.863-8.062-23.672-19.085-31.549-32.176a98.537 98.537 0 0 1-13.786-43.169l-8.777 2.665a142.968 142.968 0 0 1 12.283-53.692l-7.422-.891z" fill="#D0CAE7"/>
        <path d="M87.638 138.991a183.252 183.252 0 0 1 32.383-46.294 85.144 85.144 0 0 1 2.545-22.219c2.01-7.972 4.527-13.03 8.799-21.63 5.539-11.15 7.668-12.328 9.335-12.682 2.077-.438 4.943.067 13.117 7.428a121.024 121.024 0 0 1 16.608 18.414l39.812.536c4.63-5.202 9.93-11.068 15.841-17.44 6.454-6.968 8.389-8.878 11.233-8.938 7.489-.144 13.318 12.743 16.481 19.727a91.652 91.652 0 0 1 7.981 35.188 164.21 164.21 0 0 1 32.91 47.91h-9.044a187.863 187.863 0 0 1 13.265 54.357l-9.022-3.337a99.89 99.89 0 0 1-13.34 43.074c-7.662 13.123-18.212 24.271-30.827 32.573l-5.56-8.305c-11.891 15.024-28.403 25.574-46.899 29.965-20.388-3.115-38.912-13.792-51.982-29.965l-4.385 8.901c-12.863-8.062-23.672-19.085-31.549-32.176a98.537 98.537 0 0 1-13.786-43.169l-8.777 2.665a142.968 142.968 0 0 1 12.283-53.692l-7.422-.891z" fill="#D0CAE7"/>
        <path d="M165.884 132.717c5.764 0 10.437-4.739 10.437-10.584 0-5.846-4.673-10.585-10.437-10.585-5.764 0-10.437 4.739-10.437 10.585 0 5.845 4.673 10.584 10.437 10.584zM216.452 132.717c5.764 0 10.437-4.739 10.437-10.584 0-5.846-4.673-10.585-10.437-10.585-5.764 0-10.436 4.739-10.436 10.585 0 5.845 4.672 10.584 10.436 10.584zM190.785 143.732a11.149 11.149 0 0 0-5.412-.25 11.225 11.225 0 0 0-4.904 2.333 11.432 11.432 0 0 0-3.271 4.38 11.599 11.599 0 0 0-.884 5.42 16.876 16.876 0 0 0 5.753 7.429 16.534 16.534 0 0 0 8.785 3.141 16.898 16.898 0 0 0 9.975-4.908 16.878 16.878 0 0 0 3.827-6.334 10.633 10.633 0 0 0-1.534-7.361c-2.456-3.601-7.414-5.209-12.335-3.85z" fill="#1D1835" stroke="#1D1D1B" stroke-miterlimit="10"/>
        <path d="M156.065 154.732c-.492.287.856 3.911 1.742 5.436 1.794 3.095 4.302 7.549 7.444 13.528 7.131 12.767 9.536 15.009 10.422 14.639.692-.294.64-2.408.551-6.243-.075-3.02-.484-6.04.119-7.414a3.02 3.02 0 0 0 .283-1.555 1.243 1.243 0 0 0-.291-.959 1.03 1.03 0 0 0-.662-.227 48.243 48.243 0 0 0-4.958.099c-.58.071-1.165.101-1.75.09-2.717-.34-3.669-4.635-6.483-9.58-2.561-4.424-5.889-8.154-6.417-7.814zM206.016 171.605c-.492.43-.105 1.578 0 2.099.327 1.623 0 3.307.074 4.96.134 6.077-.945 9.422-.074 9.814 1.541.703 7.369-8.802 11.389-16.442 4.385-8.305 8.263-17.546 7.601-17.893-.41-.219-2.591 3.133-4.199 5.602-4.533 6.983-5.054 9.814-8.129 11.226a9.226 9.226 0 0 1-5.955.468.876.876 0 0 0-.707.166z" fill="#1D1835"/>
        <path d="M174.869 172.217c.306-.499 1.266-.227 3.134-.159a39.194 39.194 0 0 0 4.594-.272c2.367-.136 4.116.053 9.26.204 6.454.196 9.678.181 11.576-.121 2.017-.324 3.759-.755 4.191-.06.432.694-.417 2.265-1.608 2.869-.719.33-1.529.4-2.293.196-5.084-1.238-10.422-.204-15.685-.332-5.955-.144-8.933-.212-9.625.045a2.868 2.868 0 0 1-2.099.091c-1.065-.453-1.802-1.857-1.445-2.461z" fill="#1D1835"/>
        <path d="M176.313 174.678c-3.186 2.099-1.972 9.626-.67 13.657.551 1.714 2.844 8.848 9.291 11.898a13.532 13.532 0 0 0 5.851 1.389 15.254 15.254 0 0 0 6.007-1.427c8.636-4.137 13.586-22.392 9.224-25.517-.454-.332-.879-.393-2.114-.491-5.621-.43-8.613 0-12.35.068-1.318 0-6.246.053-12.082-.068-1.526-.03-2.33-.06-3.157.491z" fill="#E5ABBD" stroke="#E5ABBD" stroke-miterlimit="10"/>
        <path d="M142.606 48.396c-3.282.755-4.086 8.35-4.965 16.67-.789 7.413-1.258 11.867 1.147 13.37 2.977 1.872 8.687-1.88 11.464-4.65a11.685 11.685 0 0 0 3.245-4.848c1.281-3.963-.312-7.595-1.526-10.267-1.414-3.11-5.784-11.053-9.365-10.275zM238.621 48.396c3.194.755 3.983 8.35 4.839 16.67.744 7.413 1.221 11.867-1.117 13.37-2.903 1.872-8.464-1.88-11.166-4.65a11.735 11.735 0 0 1-3.156-4.848c-1.244-3.963.305-7.595 1.488-10.267 1.37-3.11 5.628-11.053 9.112-10.275z" fill="#7362B9"/>
        <path d="M168.779 121.627c1.386 0 2.509-1.139 2.509-2.544 0-1.406-1.123-2.545-2.509-2.545-1.385 0-2.508 1.139-2.508 2.545 0 1.405 1.123 2.544 2.508 2.544zM220.256 121.627c1.385 0 2.508-1.139 2.508-2.544 0-1.406-1.123-2.545-2.508-2.545-1.386 0-2.509 1.139-2.509 2.545 0 1.405 1.123 2.544 2.509 2.544z" fill="#F6F6F6"/>
    </g>
    <g clip-path="url(#xfz4zhnklb)">
        <path d="M228.116 232.668c.954-1.932 3.197-5.313 19.278-13.756 2.662-1.391 4.886-2.511 6.919-3.468 7.262-3.458 12.884-5.844 15.89-7.081 18.19-7.486 27.399-11.234 32.791-11.476 9.735-.434 18.686 2.357 18.696 4.309.01 1.951-7.511 1.613-15.928 6.762-5.726 3.526-8.446 8.22-12.979 16.142-3.665 6.356-8.399 14.209-9.372 24.845-.859 9.544 2.157 9.486 3.121 26.304.61 10.626-.077 19.832-2.949 28.488a43.932 43.932 0 0 1-5.507 10.751c-2.004 2.898-5.898 8.462-8.369 7.728-2.234-.686-.678-5.854-2.94-12.558-1.699-4.984-4.256-7.003-14.84-17.465-2.863-2.772-7.377-7.332-13.056-13.147a65.643 65.643 0 0 1-9.543-19.118c-2.644-8.481-5.783-18.624-1.212-27.26zM483.691 232.253c-.954-1.932-3.197-5.313-19.22-13.756-2.653-1.391-4.877-2.512-6.9-3.468-6.986-3.323-12.483-5.69-15.842-7.081-16.224-6.694-24.308-10.037-28.535-10.539-12.407-1.459-23.573 2.27-23.535 4.154 0 1.623 8.131.473 16.596 5.97 5.192 3.371 8.007 7.496 12.98 16.141 3.655 6.357 8.369 14.21 9.333 24.846.869 9.544-2.138 9.486-3.101 26.304-.602 10.626.066 19.832 2.939 28.488a43.664 43.664 0 0 0 5.44 10.751c1.994 2.898 5.878 8.462 8.331 7.68 2.233-.686.687-5.854 2.94-12.558 1.689-4.985 4.237-7.004 14.792-17.465 2.863-2.773 7.348-7.332 12.979-13.148a65.418 65.418 0 0 0 9.544-19.117c2.681-8.423 5.812-18.576 1.259-27.202z" fill="#F7DAAD"/>
        <path d="M363.443 193.641a49.552 49.552 0 0 1 9.782.454c9.247 1.391 15.928 5.159 17.627 7.323.48.637 1.024 1.223 1.622 1.748a13.093 13.093 0 0 0 2.949 1.932 31.602 31.602 0 0 1 6.156 3.497c4.771 3.681 2.863 5.468 10.383 14.036 3.207 3.642 3.903 3.738 5.631 6.347a31.13 31.13 0 0 1 4.542 12.278 88 88 0 0 1 .43 24.15 213.93 213.93 0 0 0-1.079 36.408 90.119 90.119 0 0 1-2.596 14.877c-2.147 8.143-4.18 11.205-5.811 17.851a60.274 60.274 0 0 0-1.48 18.944 223.884 223.884 0 0 0-8.961-23.909 220.302 220.302 0 0 0-10.193-20.199 37.302 37.302 0 0 0-7.214-6.134c-5.727-3.69-9.162-3.681-12.884-7.419a20.188 20.188 0 0 1-4.562-7.67c-6.289-16.751-4.323-53.913-4.323-53.922a381.156 381.156 0 0 0-.019-40.592z" fill="#F9E3C2"/>
        <path d="M391.481 202.181c.458-.966 11.367 1.033 19.316 8.52 1.957 1.845 4.467 6.163 9.487 14.799 4.571 7.883 6.088 11.457 7.119 15.263a36.575 36.575 0 0 1 1.365 10.317 39.858 39.858 0 0 1-.563 5.632c-.583 3.97-.411 4.192-1.375 15.852-1.221 15.514-1.45 14.036-1.364 16.045a51.87 51.87 0 0 0 4.504 17.484c5.154 10.52 12.979 14.645 12.206 15.688-.773 1.044-8.083-1.748-12.645-7.438a90.486 90.486 0 0 1-5.01-7.544 139.243 139.243 0 0 1-3.092-5.053 202.795 202.795 0 0 1-.258-7.042c-.124-5.796 0-10.191 0-11.592 0-1.4.191-5.796.678-11.485.61-7.487 1.049-8.492 1.183-12.81a69.326 69.326 0 0 0-.592-11.447 48.664 48.664 0 0 0-.954-7.805c-.687-3.168-1.136-5.535-2.529-8.143-1.012-1.932-1.785-2.609-6.547-7.854-3.579-3.932-1.966-2.241-5.363-5.95-5.812-6.376-8.78-9.593-11.233-11.689-3.149-2.753-4.505-3.381-4.333-3.748z" fill="#F2C47D"/>
        <path d="M348.66 193.371a74.191 74.191 0 0 0-9.715.464c-2.863.318-15.719 1.777-17.56 6.404a7.836 7.836 0 0 1-1.575 2.666 9.036 9.036 0 0 1-2.92 1.932 31.208 31.208 0 0 0-6.099 3.497c-4.695 3.69-2.863 5.468-10.307 14.027-3.187 3.651-3.893 3.748-5.592 6.356a31.217 31.217 0 0 0-4.514 12.278 88.712 88.712 0 0 0-.43 24.15 215.081 215.081 0 0 1 1.088 36.418c.45 5.023 1.315 10 2.587 14.876 2.128 8.144 4.151 11.206 5.726 17.852a61.038 61.038 0 0 1 1.441 18.885 224.354 224.354 0 0 1 19.029-44.001 37.343 37.343 0 0 1 7.168-6.124c5.649-3.691 9.095-3.681 12.797-7.429a19.963 19.963 0 0 0 4.515-7.67c6.251-16.731 4.304-53.903 4.294-53.912a384.199 384.199 0 0 1 .067-40.669z" fill="#F9E3C2"/>
        <path d="M320.277 202.326c-.305-.696-6.68.695-12.263 3.719-2.386 1.294-8.198 4.376-11.901 10.693-1.488 2.58-2.557 5.613-6.289 12.568-.229.444-.611 1.14-1.097 2.125a71.28 71.28 0 0 0-3.417 8.308c-1.46 4.25-2.729 7.989-2.729 12.558 0 4.25 1.145 4.762 2.615 11.177a46.559 46.559 0 0 1 .954 10.481c0 7.158.515 13.524.057 16.615 0 .154-.162 1.043-.305 2.28-.182 1.449-.267 2.502-.287 2.685-.238 2.579-1.908 6.376-2.624 7.95a61.77 61.77 0 0 1-4.705 8.926c-4.161 6.443-7.892 9.341-7.635 9.66.258.319 6.776-3.796 12.493-9.998a60.565 60.565 0 0 0 7.844-10.626 99.75 99.75 0 0 0 .688-19.822c-.411-5.97-1.069-7.303-1.527-14.703a145.15 145.15 0 0 1 0-17.301c.544-9.003.82-13.524 2.433-16.692 2.739-5.362 5.221-4.647 10.794-12.887 3.703-5.477 2.863-6.607 5.726-8.993 1.489-1.256 5.554-4.28 9.544-7.265 1.078-.695 1.765-1.197 1.631-1.458z" fill="#F2C47D"/>
        <path d="m348.66 193.371 14.764.261a502.173 502.173 0 0 1 1.861 54.801 126.764 126.764 0 0 0 2.262 30.323 121.547 121.547 0 0 0 4.772 17.088 45.338 45.338 0 0 1 18.333 10.626c3.941 3.806 6.031 7.265 8.675 11.708a92.985 92.985 0 0 1 12.263 35.25c.21 1.729.783 7.351.344 18.566-.687 17.262-3.627 21.252-4.877 22.73-.954 1.082-5.822 6.636-12.292 6.105-4.638-.377-7.778-3.661-9.544-5.603-8.112-8.771-4.914-17.098-10.564-25.734-2.606-4.009-7.692-8.955-18.667-11.824a28.902 28.902 0 0 0-12.521 7.236c-5.593 5.631-5.163 10.374-11.577 22.14-4.857 8.926-7.797 14.152-12.712 14.906-6.327.966-12.129-6.057-13.666-7.941-11.834-14.335-5.898-36.35-4.59-40.871a95.45 95.45 0 0 1 3.817-12.916c1.832-4.83 2.415-5.226 6.146-13.398 5.259-11.467 5.469-13.727 9.009-17.717a42.532 42.532 0 0 1 7.167-6.124 68.72 68.72 0 0 1 12.798-7.429 38.532 38.532 0 0 0 5.03-9.254 39.709 39.709 0 0 0 2.452-11.524c1.728-24.662 1.031-46.658 1.031-46.658-.258-8.317-.42-20.199.286-34.747z" fill="#FDF6EA"/>
        <path d="M321.518 267.918c5.888 0 10.65-3.864 10.65-8.637 0-4.772-4.771-8.626-10.65-8.626-5.879 0-10.651 3.864-10.651 8.626 0 4.763 4.772 8.637 10.651 8.637zM393.19 267.918c5.888 0 10.65-3.864 10.65-8.637 0-4.772-4.772-8.626-10.65-8.626-5.879 0-10.651 3.864-10.651 8.626 0 4.763 4.772 8.637 10.651 8.637z" fill="#3C2706" stroke="#1D1D1B" stroke-miterlimit="10"/>
        <path d="M378.922 382.002a54.707 54.707 0 0 1-22.269 4.742 54.708 54.708 0 0 1-22.27-4.742 31.546 31.546 0 0 1 9.038-17.147 30.359 30.359 0 0 1 12.521-7.264 26.797 26.797 0 0 1 15.661 8.163 27.383 27.383 0 0 1 7.319 16.219v.029z" fill="#F9E3C2"/>
        <path d="M319.132 401.93c.506.503 3.111-1.207 4.982-2.84a27.402 27.402 0 0 0 7.73-12.065c3.254-9.38 13.991-23.184 24.813-23.599 9.544-.358 20.146 9.747 22.265 18.576a37.647 37.647 0 0 0 2.014 7.216c1.307 3.197 3.416 8.346 8.341 10.549a12.353 12.353 0 0 0 5.468 1.024c-2.02-4.38-4.282-8.64-6.776-12.761-6.881-11.38-19.316-31.878-32.028-30.42-4.323.512-7.94 3.459-12.521 7.236a49.994 49.994 0 0 0-9.333 10.375c-4.133 6.056-3.245 7.409-7.931 15.311-4.142 6.945-7.682 10.742-7.024 11.398z" fill="#F2C47D"/>
        <path d="M324.286 261.793c.455 0 .9-.137 1.278-.392.378-.256.673-.62.847-1.045a2.354 2.354 0 0 0-.498-2.537 2.275 2.275 0 0 0-2.507-.505c-.42.176-.779.474-1.032.857a2.347 2.347 0 0 0 .286 2.94 2.283 2.283 0 0 0 1.626.682zM397.045 261.957a2.286 2.286 0 0 0 1.279-.404c.378-.259.671-.626.842-1.055a2.36 2.36 0 0 0-.517-2.542 2.305 2.305 0 0 0-1.185-.632 2.278 2.278 0 0 0-1.332.14c-.421.179-.78.48-1.032.866a2.353 2.353 0 0 0-.383 1.299 2.346 2.346 0 0 0 .684 1.657 2.294 2.294 0 0 0 1.644.671z" fill="#F6F6F6"/>
        <path d="M338.601 321.26c-.191-.232-.802-1.063-.477-3.284.744-5.178 5.373-9.805 10.497-11.989a19.597 19.597 0 0 1 6.547-1.516c2.36-.072 4.713.301 6.938 1.101.43.155 7.635 2.898 10.632 10.047.649 1.564 1.594 3.921.515 5.573-.954 1.44-2.977 1.662-3.894 1.758-3.454.387-4.609-1.622-7.186-.83a7.501 7.501 0 0 0-3.273 2.386c-1.976 2.135-1.985 3.912-2.997 3.98-.706 0-1.031-.792-3.273-3.613-2.119-2.666-2.653-2.966-3.083-3.13-1.26-.464-1.794.135-4.361.464-1.957.251-5.259.666-6.585-.947z" fill="#3C2706" stroke="#1D1D1B" stroke-width=".25" stroke-miterlimit="10"/>
    </g>
    <defs>
        <clipPath id="xqv0uym4ya">
            <path fill="#fff" transform="translate(82.792 36.052)" d="M0 0h216.119v251.273H0z"/>
        </clipPath>
        <clipPath id="xfz4zhnklb">
            <path fill="#fff" transform="translate(225.797 193.371)" d="M0 0h260.204v208.666H0z"/>
        </clipPath>
    </defs>
</svg>
